<?xml version="1.0" encoding="utf-8"?>
<!-- Generator: Adobe Illustrator 24.0.1, SVG Export Plug-In . SVG Version: 6.00 Build 0)  -->
<svg version="1.1" id="Layer_1" xmlns="http://www.w3.org/2000/svg" xmlns:xlink="http://www.w3.org/1999/xlink" x="0px" y="0px"
	 viewBox="0 0 96 96" style="enable-background:new 0 0 96 96;" xml:space="preserve">
<style type="text/css">
	.st0{fill:#008D36;}
</style>
<g>
	<path class="st0" d="M48,87.55C26.16,87.55,8.45,69.84,8.45,48S26.16,8.45,48,8.45S87.55,26.16,87.55,48
		C87.53,69.83,69.83,87.53,48,87.55z M48,14.53c-18.48,0-33.47,14.98-33.47,33.47S29.52,81.47,48,81.47S81.47,66.48,81.47,48
		C81.45,29.52,66.48,14.55,48,14.53z"/>
	<path class="st0" d="M48,63.21c-1.68,0-3.04-1.36-3.04-3.04V35.83c0-1.68,1.36-3.04,3.04-3.04c1.68,0,3.04,1.36,3.04,3.04v24.34
		C51.04,61.85,49.68,63.21,48,63.21z"/>
	<path class="st0" d="M60.17,51.04H35.83c-1.68,0-3.04-1.36-3.04-3.04c0-1.68,1.36-3.04,3.04-3.04h24.34c1.68,0,3.04,1.36,3.04,3.04
		C63.21,49.68,61.85,51.04,60.17,51.04z"/>
</g>
</svg>
